# xmcd CD database file
# Generated: Wed Mar 19 11:51:49 2003 by KSCD
# 
# Track frame offsets:
#       150
#       12003
#       27940
#       44250
#       54607
#       65557
#       79655
#       97277
#       112732
#       130828
#       146712
#       158486
#       181215
#       192692
#
# Disc length: 2859 seconds
#
# Revision: 2
# Processed by: cddbd v1.4PL0 Copyright (c) Steve Scherf et al.
# Submitted via: Kscd 1.3.3
#
DISCID=bb0b290e
DTITLE=DOKLOBOUKU - BOSÁ
DYEAR=1900
DGENRE=
TTITLE0=V??ný trápení
TTITLE1=?ivot je jako horská dráha
TTITLE2=Ve skalách
TTITLE3=Jenom smích
TTITLE4=Sedím, sv?t mám p?ed sebou
TTITLE5=Bosá
TTITLE6=Kdy? sním
TTITLE7=Zimní stopa?ská
TTITLE8=Neblázni, Mary
TTITLE9=M?j k?n
TTITLE10=Bílí kon?
TTITLE11=Tv?j ji?ní cíl
TTITLE12=Sm?la
TTITLE13=Vítr
EXTD=Obálku navrhla Ivana Musílková, graficky upravil Ji?í Hr?za \nFoto: Pa
EXTD=vel Svajdler \nHudební a zvuková re?ie: Ivana Musílková a Pavel Sonda 
EXTD=\nNahráno ve studiu PAST Hradec Králové v lét? 2001 \n
EXTT0=
EXTT1=
EXTT2=
EXTT3=
EXTT4=
EXTT5=
EXTT6=
EXTT7=
EXTT8=
EXTT9=
EXTT10=
EXTT11=
EXTT12=
EXTT13=
PLAYORDER=
